<?xml version="1.0" standalone="no"?>
<!DOCTYPE svg PUBLIC "-//W3C//DTD SVG 20010904//EN"
 "http://www.w3.org/TR/2001/REC-SVG-20010904/DTD/svg10.dtd">
<svg version="1.0" xmlns="http://www.w3.org/2000/svg"
 width="306.000000pt" height="306.000000pt" viewBox="0 0 306.000000 306.000000"
 preserveAspectRatio="xMidYMid meet">
<metadata>
Created by potrace 1.11, written by Peter Selinger 2001-2013
</metadata>
<g transform="translate(0.000000,306.000000) scale(0.100000,-0.100000)"
fill="#000000" stroke="none">
<path d="M1410 2992 c0 -6 -7 -9 -15 -6 -9 4 -15 0 -15 -7 0 -11 -3 -11 -10 1
-8 12 -11 13 -19 1 -6 -9 -11 -10 -15 -2 -4 6 -12 9 -17 6 -5 -4 -19 -8 -31
-10 -38 -8 -102 -18 -115 -18 -7 0 -13 -4 -13 -8 0 -4 -9 -6 -20 -4 -11 2 -20
0 -20 -4 0 -8 -8 -10 -57 -14 -17 -1 -29 -5 -26 -9 2 -5 -1 -8 -8 -8 -7 0 -22
-8 -33 -17 -20 -17 -20 -17 -6 1 14 18 14 19 -10 6 -14 -8 -28 -13 -32 -12 -5
1 -8 -3 -8 -9 0 -5 -5 -7 -11 -3 -6 3 -14 3 -18 -2 -10 -14 -73 -45 -65 -32 4
7 3 8 -4 4 -7 -4 -12 -15 -13 -24 0 -10 -3 -12 -5 -5 -3 7 -12 9 -20 6 -7 -3
-11 -9 -8 -15 3 -5 -2 -8 -12 -6 -12 2 -18 -2 -16 -10 1 -8 -2 -11 -7 -8 -5 4
-12 2 -16 -4 -4 -6 -11 -8 -16 -5 -5 4 -9 1 -9 -4 0 -6 -9 -11 -21 -11 -11 0
-17 -4 -14 -10 6 -9 -8 -14 -28 -11 -4 0 -6 -3 -5 -8 2 -5 -1 -9 -6 -9 -5 0
-13 -7 -18 -16 -5 -9 -14 -13 -20 -10 -8 5 -9 1 -4 -11 6 -16 4 -16 -11 -4 -9
8 -14 9 -10 3 4 -7 0 -15 -9 -18 -8 -3 -13 -10 -10 -15 3 -5 -2 -8 -12 -7 -10
0 -16 -6 -16 -16 1 -10 -2 -15 -7 -13 -10 7 -70 -51 -61 -60 3 -3 -2 -3 -12 1
-11 4 -17 3 -14 -2 7 -12 -47 -65 -57 -56 -4 4 -6 2 -5 -3 4 -20 0 -36 -9 -31
-11 7 -23 -22 -16 -35 4 -5 0 -6 -8 -3 -8 3 -18 0 -23 -7 -4 -8 -3 -10 4 -5 8
5 10 2 6 -8 -3 -9 -10 -13 -15 -10 -5 3 -9 -2 -9 -11 0 -9 -4 -14 -9 -10 -5 3
-13 0 -17 -6 -4 -8 -3 -9 4 -5 7 4 12 3 12 -2 0 -6 -7 -13 -16 -16 -10 -4 -14
-12 -10 -22 6 -15 4 -15 -11 -3 -9 8 -14 9 -10 2 4 -6 0 -19 -9 -27 -11 -11
-12 -16 -3 -16 7 0 5 -6 -6 -13 -11 -9 -15 -19 -10 -27 5 -9 4 -11 -3 -6 -7 4
-12 1 -12 -9 0 -9 -4 -13 -10 -10 -6 3 -7 -1 -4 -9 3 -9 1 -16 -6 -16 -6 0 -9
-4 -5 -9 3 -5 0 -13 -6 -16 -5 -4 -8 -14 -5 -22 3 -8 1 -11 -4 -8 -9 6 -14 -8
-11 -27 0 -5 -4 -8 -10 -8 -5 0 -8 -4 -4 -9 3 -5 -1 -16 -9 -24 -8 -8 -13 -17
-10 -20 3 -3 0 -16 -7 -29 -7 -12 -12 -27 -11 -32 2 -4 -1 -13 -6 -20 -5 -6
-9 -23 -8 -37 1 -17 -3 -25 -11 -22 -8 3 -11 -5 -8 -27 3 -25 1 -31 -11 -26
-10 4 -13 2 -7 -7 11 -17 13 -37 3 -37 -5 0 -7 -11 -5 -25 1 -14 -2 -25 -6
-25 -5 0 -9 -5 -9 -11 0 -5 6 -7 13 -3 8 5 8 2 -2 -9 -7 -9 -10 -17 -5 -17 5
0 3 -4 -5 -9 -12 -8 -12 -12 -2 -25 8 -9 9 -16 3 -16 -6 0 -9 -11 -7 -25 1
-14 -1 -25 -4 -25 -3 0 -5 -48 -5 -108 3 -192 3 -194 17 -186 8 6 8 3 -1 -9
-8 -9 -10 -22 -6 -29 5 -7 9 -30 10 -51 0 -22 5 -42 10 -45 5 -4 9 -20 9 -36
-1 -16 5 -34 12 -42 16 -15 17 -28 2 -19 -12 8 11 -37 25 -46 4 -4 3 -10 -3
-13 -6 -4 -9 -12 -5 -17 3 -5 9 -7 14 -4 5 3 5 -8 0 -25 -6 -20 -5 -28 1 -24
6 3 13 -3 16 -15 3 -12 9 -21 14 -21 4 0 6 -9 4 -20 -2 -11 4 -25 14 -32 10
-7 17 -23 16 -35 -1 -12 1 -21 4 -19 3 2 11 -2 18 -9 10 -11 10 -15 0 -18 -7
-3 -1 -6 13 -6 19 -1 22 -4 11 -10 -12 -8 -8 -15 17 -36 18 -15 30 -30 27 -35
-6 -10 18 -60 30 -60 6 0 15 -10 20 -23 6 -12 16 -21 23 -19 7 1 11 -1 10 -5
-2 -11 20 -63 27 -63 4 0 4 4 0 9 -3 5 -1 12 4 15 5 4 8 -5 7 -18 -2 -17 1
-23 10 -19 8 3 14 0 14 -7 0 -17 47 -60 56 -51 4 3 4 -2 1 -11 -3 -10 -1 -20
5 -24 7 -4 8 -3 4 4 -10 17 3 15 20 -3 9 -8 13 -15 9 -15 -3 0 0 -6 7 -14 9
-10 17 -11 26 -3 7 6 12 6 10 1 -3 -11 33 -54 45 -54 5 0 15 -6 22 -12 34 -31
43 -36 49 -31 3 4 6 -1 6 -10 0 -10 3 -16 8 -15 13 4 52 -13 52 -23 0 -5 9 -9
21 -9 11 0 17 -4 14 -10 -3 -5 3 -10 15 -10 13 0 19 -4 14 -12 -5 -7 -3 -8 6
-3 8 5 18 1 27 -10 7 -11 13 -13 13 -6 0 7 5 9 10 6 6 -4 8 -10 6 -14 -3 -4 1
-8 9 -9 8 -1 22 -3 30 -4 8 -1 15 -5 15 -9 0 -5 7 -5 17 -2 11 4 14 3 9 -5 -6
-11 19 -18 47 -13 4 0 7 -3 7 -9 0 -5 12 -10 26 -10 14 0 23 -4 20 -8 -5 -9
10 -12 52 -12 12 0 22 -4 22 -10 0 -5 9 -7 20 -5 11 2 20 -1 20 -6 0 -6 5 -7
10 -4 6 4 18 1 27 -7 11 -8 14 -8 10 -1 -5 8 -1 11 12 10 16 -1 18 -4 8 -16
-10 -12 -9 -13 9 -3 16 8 24 8 32 0 9 -9 12 -9 12 2 0 9 5 8 16 -6 8 -10 13
-13 9 -6 -7 13 28 12 41 -1 4 -4 13 -2 21 4 10 9 13 8 13 -1 0 -9 4 -9 17 1
11 10 14 10 9 1 -8 -13 19 -13 41 1 6 4 14 3 17 -2 8 -12 55 -11 62 1 4 6 10
5 16 -3 7 -11 11 -11 15 -1 2 6 10 9 16 5 18 -12 38 -12 31 -1 -8 12 29 6 38
-7 5 -6 8 -5 8 3 0 7 14 12 36 12 23 0 33 4 28 11 -4 7 1 7 16 -1 17 -9 21 -9
15 0 -5 9 -1 10 15 5 15 -5 20 -4 16 4 -5 7 -1 9 9 5 8 -4 22 -1 30 6 12 10
15 10 15 -1 0 -12 2 -12 9 0 5 8 16 11 26 8 10 -4 14 -3 10 4 -4 6 1 9 11 7
12 -2 18 2 16 11 -3 12 -1 12 14 0 14 -11 16 -11 10 0 -7 10 -3 12 13 6 13 -4
21 -2 21 5 0 6 5 8 10 5 6 -3 10 -1 10 5 0 6 4 9 9 5 5 -3 16 2 24 10 19 18
31 20 22 3 -4 -7 1 -4 9 6 9 11 19 17 22 13 4 -4 13 1 21 11 10 11 12 12 8 2
-4 -8 1 -6 9 4 9 11 16 16 16 12 0 -5 7 -3 15 4 8 6 20 8 26 4 7 -4 9 -3 6 2
-3 6 3 16 15 23 16 10 19 10 13 -1 -4 -8 -1 -7 7 2 7 8 22 22 32 30 18 13 19
13 12 0 -4 -9 -1 -8 7 3 8 9 19 17 26 17 6 0 11 5 11 10 0 6 4 9 9 8 5 -2 17
6 26 17 9 11 14 13 10 5 -4 -8 3 -4 15 10 12 14 19 18 15 10 -4 -8 1 -6 9 4 9
11 16 16 16 12 0 -4 7 0 16 8 8 9 12 21 8 28 -6 10 -4 10 8 0 13 -10 17 -10
22 3 3 9 10 13 16 10 9 -6 14 8 11 28 -1 5 4 5 10 1 7 -4 20 3 31 17 11 13 16
18 12 10 -5 -9 -3 -12 4 -7 7 4 12 14 12 22 0 8 5 12 10 9 6 -3 10 1 10 10 0
10 5 13 12 9 7 -5 9 -2 5 8 -4 12 -1 14 14 11 11 -3 19 0 19 6 0 7 -5 9 -12 5
-7 -4 -8 -3 -4 5 4 6 12 9 17 6 5 -4 9 -1 9 5 0 6 5 8 10 5 6 -3 10 -2 10 3 0
4 9 18 21 31 11 12 18 28 15 36 -3 8 -1 17 5 20 5 4 9 3 8 -2 -4 -23 3 -25 16
-6 8 12 12 30 9 40 -3 10 -2 14 3 8 4 -5 16 -11 26 -11 17 -2 17 -1 1 17 -17
19 -17 19 -1 13 12 -4 17 -2 15 7 -2 7 3 13 11 14 8 0 16 11 18 25 2 14 11 32
20 40 16 14 16 13 2 -5 -13 -18 -13 -19 3 -7 10 8 14 20 11 29 -5 12 -3 14 8
8 12 -7 12 -6 1 7 -11 14 -9 18 15 30 15 7 29 19 29 26 1 6 2 13 3 15 2 1 4
12 7 25 3 15 0 21 -7 17 -6 -4 -8 -13 -5 -21 3 -8 1 -14 -4 -14 -5 0 -9 11 -8
24 2 24 12 27 37 12 10 -6 12 -5 7 3 -5 7 0 21 11 33 10 12 13 18 7 15 -7 -4
-15 0 -18 9 -4 12 -2 15 9 10 8 -3 14 0 12 7 -1 7 4 11 12 9 11 -2 12 0 2 11
-9 12 -8 16 4 20 9 4 12 13 8 23 -4 12 -3 15 6 10 8 -5 7 3 -4 24 -9 18 -12
29 -6 26 15 -10 14 7 -1 22 -8 8 -8 12 -1 12 6 0 14 -7 17 -16 3 -8 10 -12 16
-9 6 4 8 10 5 15 -3 5 -1 11 4 15 6 3 7 13 4 22 -4 9 -2 14 3 11 5 -4 9 10 8
30 0 21 4 43 10 50 7 11 6 13 -9 10 -13 -2 -19 4 -20 19 -1 12 2 20 7 17 15
-10 36 16 31 37 -4 12 0 25 8 30 11 7 11 9 -3 9 -9 0 -19 -6 -21 -12 -3 -8 -6
-6 -6 5 -1 9 5 17 13 17 8 0 18 5 22 12 4 7 3 8 -4 4 -7 -4 -12 -1 -12 9 0 9
5 13 10 10 6 -3 10 -1 10 4 0 14 -13 14 -28 -1 -9 -9 -15 -9 -24 1 -11 10 -9
11 7 5 16 -6 18 -5 8 7 -7 7 -13 17 -13 23 0 5 7 1 15 -10 11 -15 14 -16 15
-3 0 8 -6 21 -12 28 -10 11 -10 13 0 7 6 -4 12 -2 12 3 0 6 -5 11 -12 11 -6 0
-9 2 -6 5 3 3 13 3 22 -1 14 -5 14 -9 4 -23 -12 -14 -11 -15 5 -2 11 9 14 18
8 25 -4 6 -7 22 -5 36 3 18 2 21 -5 10 -5 -8 -8 -17 -6 -20 2 -3 -5 -7 -16 -7
-10 -1 -19 2 -19 8 0 5 6 8 13 7 7 -2 12 7 11 20 0 13 4 21 11 19 6 -3 11 6
10 23 0 24 -3 27 -25 24 -24 -3 -24 -3 -3 8 12 6 24 17 28 26 5 12 3 13 -10 2
-14 -11 -14 -10 -6 12 6 15 5 30 -1 41 -5 9 -6 22 -3 27 3 6 1 10 -4 10 -6 0
-10 3 -9 8 3 15 -25 61 -35 55 -6 -3 -7 -1 -3 5 4 6 13 9 21 6 8 -4 13 -10 10
-14 -3 -4 3 -14 13 -21 15 -13 16 -12 3 4 -7 9 -10 17 -6 17 4 0 2 6 -4 13 -6
8 -7 18 -3 22 4 5 1 5 -7 0 -10 -6 -11 -2 -6 16 7 21 6 22 -9 10 -15 -13 -24
-2 -9 13 22 22 5 43 -29 37 -13 -2 -9 6 9 20 11 9 14 10 9 2 -5 -9 -2 -11 10
-6 11 4 13 8 6 11 -7 2 -12 10 -12 18 0 8 -5 14 -11 14 -5 0 -8 -4 -4 -9 3 -5
2 -12 -3 -15 -4 -2 -8 6 -8 19 0 14 4 21 11 17 5 -3 4 1 -2 10 -7 8 -9 19 -5
23 4 5 2 5 -5 1 -6 -3 -14 -2 -18 4 -3 5 2 10 12 10 12 1 9 5 -12 16 -16 8
-22 12 -13 10 10 -3 20 -1 23 5 4 5 3 8 -2 7 -4 -2 -8 -1 -9 2 -3 18 -26 50
-33 45 -5 -3 -12 2 -15 11 -3 8 -2 12 4 9 6 -3 10 -1 10 4 0 6 -7 11 -15 11
-9 0 -12 6 -9 15 4 8 1 15 -5 15 -6 0 -11 7 -11 15 0 8 -7 16 -15 16 -28 3
-33 4 -40 11 -4 4 8 5 27 2 30 -3 31 -3 11 8 -13 6 -23 17 -23 25 0 8 -12 26
-27 40 -16 15 -23 23 -16 19 6 -3 15 -2 18 4 4 6 3 10 -2 9 -20 -3 -34 2 -28
11 4 6 -1 7 -12 3 -16 -6 -17 -5 -3 12 9 11 10 16 3 11 -9 -4 -13 -1 -13 10 0
14 -2 15 -17 3 -15 -13 -15 -12 -4 10 7 13 9 21 4 18 -5 -3 -17 3 -26 14 -10
11 -23 17 -30 13 -7 -5 -6 -1 2 10 12 15 12 17 0 14 -8 -2 -13 3 -12 10 2 6
-3 12 -11 12 -7 0 -20 8 -27 18 -11 14 -11 15 1 5 8 -7 19 -13 24 -13 6 0 -1
8 -14 17 -14 10 -27 18 -30 18 -12 0 -48 44 -42 51 4 3 -4 1 -18 -6 -22 -12
-24 -12 -12 2 11 14 8 18 -17 29 -16 7 -27 17 -24 22 3 5 -4 4 -15 -2 -15 -8
-23 -8 -28 1 -4 7 -3 8 4 4 8 -5 12 1 12 16 0 18 -2 20 -10 8 -6 -9 -10 -10
-10 -3 0 6 -9 15 -20 18 -11 4 -17 11 -14 17 5 7 2 8 -7 2 -20 -12 -40 -14
-33 -3 3 5 10 7 15 4 5 -3 6 1 3 9 -3 9 -10 14 -14 11 -5 -3 -15 2 -23 10 -11
10 -17 11 -19 3 -5 -14 -28 -2 -28 15 0 7 4 6 10 -3 8 -13 10 -12 10 4 0 12
-5 16 -14 13 -8 -3 -20 1 -27 9 -9 12 -15 12 -27 2 -13 -11 -15 -10 -9 4 3 10
1 20 -5 24 -7 4 -8 3 -4 -4 5 -8 0 -12 -13 -12 -11 0 -23 5 -26 10 -4 6 -10 8
-15 5 -5 -3 -11 -1 -15 5 -4 6 -12 7 -18 3 -8 -4 -7 -1 1 9 11 14 10 16 -9 11
-17 -5 -20 -3 -14 7 5 9 4 11 -4 6 -6 -4 -18 -2 -26 4 -12 10 -15 10 -15 -1
-1 -10 -4 -9 -14 4 -7 9 -25 17 -39 17 -13 0 -27 6 -30 14 -4 9 -14 12 -28 9
-13 -4 -20 -2 -16 4 3 5 0 10 -8 10 -8 0 -11 -5 -8 -11 4 -6 -1 -5 -10 2 -9 8
-22 10 -28 6 -7 -4 -9 -3 -5 4 3 6 2 13 -4 17 -5 3 -10 1 -10 -6 0 -8 -5 -7
-17 2 -14 12 -15 12 -9 1 7 -11 4 -12 -10 -4 -11 6 -37 11 -59 13 -22 2 -43 8
-47 14 -5 6 -8 6 -8 -2 0 -9 -7 -10 -26 -3 -19 8 -31 7 -42 -2 -11 -9 -13 -9
-9 -1 4 6 3 14 -3 18 -5 3 -10 1 -10 -4 0 -6 -5 -11 -11 -11 -5 0 -8 3 -6 8 6
8 -142 7 -150 -2 -4 -3 -12 -1 -20 5 -9 8 -13 8 -13 1z m840 -187 c11 -13 10
-14 -4 -9 -9 3 -16 10 -16 15 0 13 6 11 20 -6z m150 -101 c0 -8 -19 -13 -24
-6 -3 5 1 9 9 9 8 0 15 -2 15 -3z m135 -104 c-3 -5 -12 -10 -18 -10 -7 0 -6 4
3 10 19 12 23 12 15 0z m230 -259 c3 -5 2 -12 -3 -15 -5 -3 -9 1 -9 9 0 17 3
19 12 6z m120 -191 c3 -6 -1 -7 -9 -4 -18 7 -21 14 -7 14 6 0 13 -4 16 -10z
m22 -135 c0 -8 -4 -12 -9 -9 -5 3 -6 10 -3 15 9 13 12 11 12 -6z m41 -67 c-2
-6 -12 -12 -21 -14 -9 -1 -15 2 -11 7 3 5 10 7 15 4 5 -4 9 -1 9 4 0 6 3 11 6
11 3 0 4 -5 2 -12z m36 -137 c-2 -3 -12 3 -22 13 -16 17 -16 18 5 5 12 -7 20
-15 17 -18z m21 -71 c-3 -5 -13 -6 -21 -3 -12 4 -13 8 -3 14 15 9 32 2 24 -11z
m-20 -20 c3 -5 1 -10 -4 -10 -6 0 -11 5 -11 10 0 6 2 10 4 10 3 0 8 -4 11 -10z
m30 -70 c3 -6 -1 -7 -9 -4 -18 7 -21 14 -7 14 6 0 13 -4 16 -10z m-21 -259
c14 -15 15 -21 4 -27 -7 -4 -10 -3 -5 1 4 5 0 17 -10 27 -9 10 -14 18 -11 18
3 0 13 -9 22 -19z m-17 -93 c15 -25 12 -38 -7 -28 -9 5 -21 6 -25 2 -5 -4 -5
-2 -1 5 4 7 14 10 24 7 14 -5 14 -3 -2 10 -11 9 -15 16 -9 16 7 0 15 -6 20
-12z m3 -58 c0 -5 -2 -10 -4 -10 -3 0 -8 5 -11 10 -3 6 -1 10 4 10 6 0 11 -4
11 -10z m-5 -41 c-3 -4 -13 -5 -22 -2 -11 4 -13 8 -5 11 7 2 9 9 5 15 -4 7 1
6 10 -2 9 -7 14 -17 12 -22z m-45 -79 c0 -5 -2 -10 -4 -10 -3 0 -8 5 -11 10
-3 6 -1 10 4 10 6 0 11 -4 11 -10z m4 -28 c3 -5 -1 -9 -9 -9 -8 0 -12 4 -9 9
3 4 7 8 9 8 2 0 6 -4 9 -8z m-44 -92 c0 -5 -5 -10 -11 -10 -5 0 -7 5 -4 10 3
6 8 10 11 10 2 0 4 -4 4 -10z m-35 -99 c3 -5 1 -12 -5 -16 -5 -3 -10 1 -10 9
0 18 6 21 15 7z m-71 -59 c3 -5 -1 -9 -9 -9 -8 0 -12 4 -9 9 3 4 7 8 9 8 2 0
6 -4 9 -8z m-18 -78 c1 -9 0 -13 -4 -10 -3 4 -7 14 -8 22 -1 9 0 13 4 10 3 -4
7 -14 8 -22z m-131 -164 c-3 -5 -12 -10 -18 -10 -7 0 -6 4 3 10 19 12 23 12
15 0z"/>
<path d="M2171 2854 c0 -11 3 -14 6 -6 3 7 2 16 -1 19 -3 4 -6 -2 -5 -13z"/>
<path d="M2994 1334 c-18 -14 -18 -15 4 -4 12 6 22 13 22 15 0 8 -5 6 -26 -11z"/>
<path d="M2950 1139 c0 -5 5 -7 10 -4 6 3 10 8 10 11 0 2 -4 4 -10 4 -5 0 -10
-5 -10 -11z"/>
<path d="M236 725 c4 -8 11 -15 16 -15 6 0 5 6 -2 15 -7 8 -14 15 -16 15 -2 0
-1 -7 2 -15z"/>
</g>
</svg>
